<?xml version="1.0" encoding="utf-8"?>
<!-- Generator: Adobe Illustrator 27.5.0, SVG Export Plug-In . SVG Version: 6.00 Build 0)  -->
<svg version="1.1" id="logo" xmlns="http://www.w3.org/2000/svg" xmlns:xlink="http://www.w3.org/1999/xlink" x="0px" y="0px"
	 viewBox="0 0 140 42" style="enable-background:new 0 0 140 42;" xml:space="preserve">
<style type="text/css">
	.st0{fill:url(#SVGID_1_);}
	.st1{fill:url(#SVGID_00000181807375309074099780000015345571839444748477_);}
	.st2{fill:url(#SVGID_00000024704070966528072780000008050621499832457391_);}
	.st3{fill:url(#SVGID_00000111177767941382433880000002787387490327431308_);}
	.st4{fill:#FFFFFF;}
</style>
<g>
	<g>
		
			<linearGradient id="SVGID_1_" gradientUnits="userSpaceOnUse" x1="80.9349" y1="22.9361" x2="107.4132" y2="15.9783" gradientTransform="matrix(1 0 0 -1 0 44)">
			<stop  offset="0" style="stop-color:#0D66C6"/>
			<stop  offset="1" style="stop-color:#6011C5"/>
		</linearGradient>
		<path class="st0" d="M88.7,37.5L88.7,37.5l7.1-26.9h0.1c3.6,1,5.7,4.6,4.8,8.2l-3.7,14C96,36.4,92.3,38.5,88.7,37.5z"/>
		
			<linearGradient id="SVGID_00000016767108967816023970000001587689800989852344_" gradientUnits="userSpaceOnUse" x1="80.2682" y1="20.4073" x2="106.748" y2="13.4491" gradientTransform="matrix(1 0 0 -1 0 44)">
			<stop  offset="0" style="stop-color:#0D66C6"/>
			<stop  offset="1" style="stop-color:#6011C5"/>
		</linearGradient>
		<path style="fill:url(#SVGID_00000016767108967816023970000001587689800989852344_);" d="M105,37.8L105,37.8
			c-3.7-1-5.8-4.7-4.8-8.3l2.1-7.8h0.1c3.6,1,5.7,4.6,4.8,8.2L105,37.8z"/>
		
			<linearGradient id="SVGID_00000132060097618952787450000012177314483225948575_" gradientUnits="userSpaceOnUse" x1="79.3819" y1="17.0245" x2="105.8655" y2="10.0652" gradientTransform="matrix(1 0 0 -1 0 44)">
			<stop  offset="0" style="stop-color:#0D66C6"/>
			<stop  offset="1" style="stop-color:#6011C5"/>
		</linearGradient>
		<path style="fill:url(#SVGID_00000132060097618952787450000012177314483225948575_);" d="M79.3,37.5L79.3,37.5l5.2-19.7h0.1
			c3.6,1,5.7,4.6,4.8,8.2l-1.8,6.7C86.6,36.4,82.9,38.5,79.3,37.5z"/>
		
			<linearGradient id="SVGID_00000105403704361119540490000003035389484396447373_" gradientUnits="userSpaceOnUse" x1="84.0499" y1="34.788" x2="110.5267" y2="27.8306" gradientTransform="matrix(1 0 0 -1 0 44)">
			<stop  offset="0" style="stop-color:#0D66C6"/>
			<stop  offset="1" style="stop-color:#6011C5"/>
		</linearGradient>
		<path style="fill:url(#SVGID_00000105403704361119540490000003035389484396447373_);" d="M93.7,8C93.6,6.8,92,4.5,91,4.3
			C90,4,89.3,5.1,88.5,6c-0.8,1-1.2,1.4-1.7,1.7C86.3,8,85.7,8.4,85.5,9c-0.1,0.5,0.6,0.8,0.4,1.7c-0.3,1.1-1.8,0.6-2.3,2.4
			c-0.3,1.1,1.8,3.2,5.2,4.1c1.5,0.4,3.2-0.8,3.7-2.6C92.9,12.8,93.9,9.5,93.7,8z"/>
	</g>
	<path class="st4" d="M116.4,37.5L116.4,37.5l7.6-13.1c0.2-0.4,0.8-0.4,1,0l3.5,6h-3.9c-2.2,0-3.9,1.8-3.9,3.9h10.1l0.7,1.2
		c0.7,1.2,2,2,3.4,2h2.3v-0.1L126,18c-0.6-1-2.1-1-2.7,0l-11.2,19.4v0.1H116.4z"/>
	<path class="st4" d="M27.7,27.4L27.7,27.4c0,5.6,4.5,10.1,10.1,10.1H40c5.6,0,10.1-4.5,10.1-10.1l0,0c0-5.6-4.5-10.1-10.1-10.1
		h-2.2C32.2,17.4,27.7,21.9,27.7,27.4z M40,33.6h-2.2c-3.4,0-6.2-2.8-6.2-6.2l0,0c0-3.4,2.8-6.2,6.2-6.2H40c3.4,0,6.2,2.8,6.2,6.2
		l0,0C46.2,30.8,43.4,33.6,40,33.6z"/>
	<path class="st4" d="M7,27.4L7,27.4c0-3.4,2.8-6.2,6.2-6.2h8.4c2.2,0,3.9-1.8,3.9-3.9l0,0H13.1C7.6,17.4,3,21.9,3,27.4l0,0
		C3,33,7.6,37.5,13.1,37.5h8.4c2.2,0,3.9-1.8,3.9-3.9V30c0-2.2-1.8-3.9-3.9-3.9H12l0,0c0,2.2,1.8,3.9,3.9,3.9h5
		c0.3,0,0.6,0.3,0.6,0.6V33c0,0.3-0.3,0.6-0.6,0.6h-7.8C9.7,33.6,7,30.8,7,27.4z"/>
	<path class="st4" d="M67.7,30.8c3.3-1.1,5.5-4.6,4.5-8.4c-0.8-3-3.5-5-6.6-5h-9.4c-2.2,0-3.9,1.8-3.9,3.9v16.2h3.9V21.8
		c0-0.3,0.3-0.6,0.6-0.6h8.8c1.3,0,2.4,0.8,2.8,2c0.6,2-0.9,3.9-2.8,3.9h-3.8c-2.2,0-3.9,1.8-3.9,3.9h4.6l5.3,5.3
		c0.7,0.7,1.7,1.1,2.8,1.1h3.9L67.7,30.8z"/>
</g>
</svg>
